# xmcd CD database file
#
# Track frame offsets:
#	150
#	12163
#	24187
#	39090
#	53431
#	67308
#	81219
#	95818
#	111983
#	127522
#	141153
#	154255
#	163215
#
# Disc length: 2382 seconds
#
# Revision: 0
# Processed by: cddbd v1.5.2PL0 Copyright (c) Steve Scherf et al.
# Submitted via: CDex 1.50
#
DISCID=a1094c0d
DTITLE=Demolition String Band - Different Kinds Of Love
DYEAR=2007
DGENRE=Country
TTITLE0=Who Taught You
TTITLE1=Your Wish
TTITLE2=I Wanna Wear White
TTITLE3=Wisteria
TTITLE4=Baby Come Hme
TTITLE5=Letters
TTITLE6=Thinkin' 'Bout Drinkin'
TTITLE7=Real Good Mama
TTITLE8=Loneliness Is A Kind Of Forgetting
TTITLE9=Thank You, Claudia
TTITLE10=Undone In Sorrow
TTITLE11=Boonanza
TTITLE12=Drinkin' Whiskey
EXTD=YEAR: 2007
EXTT0=
EXTT1=
EXTT2=
EXTT3=
EXTT4=
EXTT5=
EXTT6=
EXTT7=
EXTT8=
EXTT9=
EXTT10=
EXTT11=
EXTT12=
PLAYORDER=
